<?xml version="1.0" encoding="UTF-8" standalone="no"?>
<svg
   viewBox="0 0 24 24"
   version="1.1"
   id="svg182"
   sodipodi:docname="alarm.svg"
   inkscape:version="1.2.2 (b0a8486541, 2022-12-01)"
   inkscape:export-filename="alarm.png"
   inkscape:export-xdpi="96"
   inkscape:export-ydpi="96"
   xmlns:inkscape="http://www.inkscape.org/namespaces/inkscape"
   xmlns:sodipodi="http://sodipodi.sourceforge.net/DTD/sodipodi-0.dtd"
   xmlns="http://www.w3.org/2000/svg"
   xmlns:svg="http://www.w3.org/2000/svg">
  <defs
     id="defs186" />
  <sodipodi:namedview
     id="namedview184"
     pagecolor="#ffffff"
     bordercolor="#111111"
     borderopacity="1"
     inkscape:showpageshadow="0"
     inkscape:pageopacity="0"
     inkscape:pagecheckerboard="1"
     inkscape:deskcolor="#d1d1d1"
     showgrid="false"
     inkscape:zoom="34.5"
     inkscape:cx="11.115942"
     inkscape:cy="12"
     inkscape:window-width="1920"
     inkscape:window-height="1031"
     inkscape:window-x="0"
     inkscape:window-y="25"
     inkscape:window-maximized="1"
     inkscape:current-layer="svg182" />
  <path
     d="M11.9991 22.0001C7.02858 22.0001 2.99914 17.9707 2.99914 13.0001C2.99914 8.02956 7.02858 4.00012 11.9991 4.00012C16.9697 4.00012 20.9991 8.02956 20.9991 13.0001C20.9991 17.9707 16.9697 22.0001 11.9991 22.0001ZM11.9991 20.0001C15.8651 20.0001 18.9991 16.8661 18.9991 13.0001C18.9991 9.13412 15.8651 6.00012 11.9991 6.00012C8.13315 6.00012 4.99914 9.13412 4.99914 13.0001C4.99914 16.8661 8.13315 20.0001 11.9991 20.0001ZM12.9991 13.0001H15.9991V15.0001H10.9991V8.00012H12.9991V13.0001ZM1.74609 6.2826L5.28163 2.74707L6.69584 4.16128L3.16031 7.69682L1.74609 6.2826ZM18.7167 2.74707L22.2522 6.2826L20.838 7.69682L17.3024 4.16128L18.7167 2.74707Z"
     id="path180"
     style="fill:#4682b4;fill-opacity:1" />
</svg>
