<?xml version="1.0" encoding="UTF-8" standalone="no"?>
<!-- Created with Inkscape (http://www.inkscape.org/) -->

<svg
   width="100mm"
   height="100mm"
   viewBox="0 0 100 100"
   version="1.1"
   id="svg5"
   inkscape:version="1.2.2 (b0a8486541, 2022-12-01)"
   sodipodi:docname="logo.svg"
   inkscape:export-filename="logo.png"
   inkscape:export-xdpi="96"
   inkscape:export-ydpi="96"
   xmlns:inkscape="http://www.inkscape.org/namespaces/inkscape"
   xmlns:sodipodi="http://sodipodi.sourceforge.net/DTD/sodipodi-0.dtd"
   xmlns="http://www.w3.org/2000/svg"
   xmlns:svg="http://www.w3.org/2000/svg">
  <sodipodi:namedview
     id="namedview7"
     pagecolor="#ffffff"
     bordercolor="#111111"
     borderopacity="1"
     inkscape:showpageshadow="0"
     inkscape:pageopacity="0"
     inkscape:pagecheckerboard="1"
     inkscape:deskcolor="#d1d1d1"
     inkscape:document-units="mm"
     showgrid="false"
     inkscape:zoom="0.78239463"
     inkscape:cx="127.81274"
     inkscape:cy="201.94413"
     inkscape:window-width="1920"
     inkscape:window-height="1031"
     inkscape:window-x="0"
     inkscape:window-y="25"
     inkscape:window-maximized="1"
     inkscape:current-layer="layer1" />
  <defs
     id="defs2" />
  <g
     inkscape:label="Layer 1"
     inkscape:groupmode="layer"
     id="layer1"
     transform="translate(-39.110508,-73.932938)">
    <path
       id="rect777"
       style="fill:#4682b4;fill-opacity:1;stroke-width:0"
       d="M 49.110414 73.932938 C 43.57042 73.932938 39.110508 78.39285 39.110508 83.932844 L 39.110508 163.93313 C 39.110508 169.47312 43.57042 173.93304 49.110414 173.93304 L 129.1107 173.93304 C 134.65069 173.93304 139.11061 169.47312 139.11061 163.93313 L 139.11061 83.932844 C 139.11061 78.39285 134.65069 73.932938 129.1107 73.932938 L 49.110414 73.932938 z M 89.110557 98.932962 A 25 25 0 0 1 114.11058 123.93299 A 25 25 0 0 1 89.110557 148.93301 A 25 25 0 0 1 64.110532 123.93299 A 25 25 0 0 1 89.110557 98.932962 z " />
  </g>
</svg>
