<?xml version="1.0" encoding="UTF-8" standalone="no"?>
<!-- Created with Inkscape (http://www.inkscape.org/) -->

<svg
   width="100mm"
   height="100mm"
   viewBox="0 0 100 100"
   version="1.1"
   id="svg5"
   inkscape:version="1.2.2 (b0a8486541, 2022-12-01)"
   sodipodi:docname="logo.svg"
   inkscape:export-filename="logo.png"
   inkscape:export-xdpi="96"
   inkscape:export-ydpi="96"
   xml:space="preserve"
   xmlns:inkscape="http://www.inkscape.org/namespaces/inkscape"
   xmlns:sodipodi="http://sodipodi.sourceforge.net/DTD/sodipodi-0.dtd"
   xmlns="http://www.w3.org/2000/svg"
   xmlns:svg="http://www.w3.org/2000/svg"><sodipodi:namedview
     id="namedview7"
     pagecolor="#ffffff"
     bordercolor="#111111"
     borderopacity="1"
     inkscape:showpageshadow="0"
     inkscape:pageopacity="0"
     inkscape:pagecheckerboard="1"
     inkscape:deskcolor="#d1d1d1"
     inkscape:document-units="mm"
     showgrid="false"
     inkscape:zoom="0.47290357"
     inkscape:cx="148.02172"
     inkscape:cy="236.83475"
     inkscape:window-width="1920"
     inkscape:window-height="1031"
     inkscape:window-x="0"
     inkscape:window-y="25"
     inkscape:window-maximized="1"
     inkscape:current-layer="layer1" /><defs
     id="defs2" /><g
     inkscape:label="Layer 1"
     inkscape:groupmode="layer"
     id="layer1"
     transform="translate(-39.110508,-73.932938)"><path
       id="rect385"
       style="fill:#4682b4;fill-opacity:1;stroke-width:0"
       d="M 49.110414 73.932938 C 43.570438 73.932938 39.110508 78.392868 39.110508 83.932844 L 39.110508 163.93313 C 39.110508 169.47309 43.570438 173.93304 49.110414 173.93304 L 129.1107 173.93304 C 134.65066 173.93304 139.11061 169.47309 139.11061 163.93313 L 139.11061 83.932844 C 139.11061 78.392868 134.65066 73.932938 129.1107 73.932938 L 49.110414 73.932938 z M 89.110557 96.489701 C 91.351823 96.489701 93.156305 98.294181 93.156305 100.53545 L 93.156305 112.67218 C 93.156305 114.91343 91.351823 116.71792 89.110557 116.71792 C 86.86929 116.71792 85.064809 114.91343 85.064809 112.67218 L 85.064809 100.53545 C 85.064809 98.294181 86.86929 96.489701 89.110557 96.489701 z M 53.15978 111.37716 C 54.193912 111.37716 55.228182 111.77383 56.020587 112.56624 L 64.602492 121.14814 C 66.187302 122.73296 66.187302 125.28443 64.602492 126.86924 C 63.017682 128.45406 60.466207 128.45406 58.881394 126.86924 L 50.298972 118.28734 C 48.714162 116.70252 48.714162 114.15105 50.298972 112.56624 C 51.09138 111.77383 52.125647 111.37716 53.15978 111.37716 z M 125.06133 111.37716 C 126.09547 111.37716 127.12973 111.77383 127.92214 112.56624 C 129.50696 114.15105 129.50696 116.70252 127.92214 118.28734 L 119.33972 126.86924 C 117.7549 128.45406 115.20344 128.45406 113.61862 126.86924 C 112.03381 125.28443 112.03381 122.73296 113.61862 121.14814 L 122.20053 112.56624 C 122.99293 111.77383 124.0272 111.37716 125.06133 111.37716 z M 89.110557 123.56247 A 27.813605 27.813605 0 0 1 116.92436 151.37627 L 61.297267 151.37627 A 27.813605 27.813605 0 0 1 89.110557 123.56247 z " /></g></svg>
